<?xml version="1.0" encoding="UTF-8"?>
<svg width="1200px" height="800px" viewBox="0 0 1200 800" version="1.1" xmlns="http://www.w3.org/2000/svg" xmlns:xlink="http://www.w3.org/1999/xlink">
    <title>World Map Background</title>
    <g stroke="#1e3a8a" stroke-width="0.5" fill="none" fill-rule="evenodd" opacity="0.1">
        <path d="M473,190 C473,190 492,170 510,170 C528,170 539,180 560,180 C581,180 581,170 600,170 C619,170 621,190 640,190 C659,190 669,170 690,170 C711,170 711,190 730,190 C749,190 749,170 770,170 C791,170 791,190 810,190 C829,190 829,170 850,170"></path>
        <path d="M320,230 C320,230 339,210 350,210 C361,210 361,230 380,230 C399,230 399,210 420,210 C441,210 441,230 460,230 C479,230 479,210 500,210 C521,210 521,230 540,230 C559,230 559,210 580,210 C601,210 601,230 620,230 C639,230 639,210 660,210 C681,210 681,230 700,230 C719,230 719,210 740,210 C761,210 761,230 780,230 C799,230 799,210 820,210 C841,210 841,230 860,230 C879,230 879,210 900,210 C921,210 921,230 940,230"></path>
        <path d="M300,270 C300,270 319,250 330,250 C341,250 341,270 360,270 C379,270 379,250 400,250 C421,250 421,270 440,270 C459,270 459,250 480,250 C501,250 501,270 520,270 C539,270 539,250 560,250 C581,250 581,270 600,270 C619,270 619,250 640,250 C661,250 661,270 680,270 C699,270 699,250 720,250 C741,250 741,270 760,270 C779,270 779,250 800,250 C821,250 821,270 840,270 C859,270 859,250 880,250 C901,250 901,270 920,270 C939,270 939,250 960,250"></path>
        <path d="M250,310 C250,310 269,290 280,290 C291,290 291,310 310,310 C329,310 329,290 350,290 C371,290 371,310 390,310 C409,310 409,290 430,290 C451,290 451,310 470,310 C489,310 489,290 510,290 C531,290 531,310 550,310 C569,310 569,290 590,290 C611,290 611,310 630,310 C649,310 649,290 670,290 C691,290 691,310 710,310 C729,310 729,290 750,290 C771,290 771,310 790,310 C809,310 809,290 830,290 C851,290 851,310 870,310 C889,310 889,290 910,290 C931,290 931,310 950,310 C969,310 969,290 990,290"></path>
        <path d="M200,350 C200,350 219,330 230,330 C241,330 241,350 260,350 C279,350 279,330 300,330 C321,330 321,350 340,350 C359,350 359,330 380,330 C401,330 401,350 420,350 C439,350 439,330 460,330 C481,330 481,350 500,350 C519,350 519,330 540,330 C561,330 561,350 580,350 C599,350 599,330 620,330 C641,330 641,350 660,350 C679,350 679,330 700,330 C721,330 721,350 740,350 C759,350 759,330 780,330 C801,330 801,350 820,350 C839,350 839,330 860,330 C881,330 881,350 900,350 C919,350 919,330 940,330 C961,330 961,350 980,350 C999,350 999,330 1020,330"></path>
    </g>
</svg>